<?xml version="1.0" encoding="UTF-8" standalone="no"?>
<svg xmlns="http://www.w3.org/2000/svg" version="1.1" width="1024" height="1024">
<path d="M 382 829 L 381 830 L 376 830 L 375 831 L 371 831 L 370 832 L 367 832 L 366 833 L 363 833 L 362 834 L 359 834 L 358 835 L 355 835 L 354 836 L 350 836 L 349 837 L 346 837 L 345 838 L 342 838 L 341 839 L 338 839 L 337 840 L 333 840 L 332 841 L 328 841 L 327 842 L 324 842 L 323 843 L 319 843 L 318 844 L 315 844 L 314 845 L 310 845 L 309 846 L 305 846 L 304 847 L 300 847 L 299 848 L 296 848 L 294 850 L 294 852 L 293 853 L 293 854 L 294 855 L 294 856 L 296 858 L 296 859 L 297 859 L 298 860 L 299 860 L 300 861 L 307 861 L 308 862 L 315 862 L 316 863 L 315 864 L 313 864 L 312 865 L 310 865 L 309 866 L 308 866 L 307 867 L 306 867 L 305 868 L 303 868 L 302 869 L 301 869 L 300 870 L 298 870 L 297 871 L 296 871 L 295 872 L 294 872 L 293 873 L 292 873 L 292 874 L 290 876 L 290 877 L 289 878 L 289 886 L 293 890 L 294 890 L 295 891 L 302 891 L 303 890 L 305 890 L 306 889 L 307 889 L 308 888 L 310 888 L 311 887 L 312 887 L 313 886 L 315 886 L 316 885 L 317 885 L 318 884 L 320 884 L 321 883 L 322 883 L 323 882 L 325 882 L 326 881 L 327 881 L 328 880 L 329 880 L 330 879 L 332 879 L 333 878 L 334 878 L 335 877 L 337 877 L 338 876 L 339 876 L 340 875 L 342 875 L 343 874 L 345 874 L 346 873 L 348 873 L 349 872 L 350 872 L 351 871 L 353 871 L 354 870 L 355 870 L 356 869 L 358 869 L 359 868 L 361 868 L 362 867 L 363 867 L 364 866 L 365 866 L 366 865 L 367 865 L 368 864 L 370 864 L 371 863 L 372 863 L 373 862 L 374 862 L 375 861 L 377 861 L 378 860 L 380 860 L 381 859 L 382 859 L 383 858 L 384 858 L 385 857 L 387 857 L 389 855 L 390 855 L 390 854 L 391 853 L 391 852 L 390 851 L 390 848 L 389 847 L 389 844 L 388 843 L 388 841 L 387 840 L 387 838 L 386 837 L 386 836 L 385 835 L 385 833 L 384 832 L 384 831 Z" fill="black" />
<path d="M 710 719 L 709 720 L 706 720 L 705 721 L 704 721 L 704 722 L 703 723 L 703 729 L 706 732 L 769 732 L 770 731 L 771 731 L 773 729 L 773 728 L 774 727 L 774 723 L 771 720 L 768 720 L 767 719 L 764 719 L 763 720 L 729 720 L 728 719 L 727 719 L 726 720 L 725 719 L 724 720 L 723 719 L 722 720 L 721 719 L 720 720 L 713 720 L 712 719 L 711 720 Z" fill="black" />
<path d="M 179 587 L 178 588 L 174 588 L 171 591 L 171 594 L 170 595 L 171 596 L 171 597 L 172 598 L 172 599 L 173 599 L 174 600 L 175 600 L 176 601 L 181 601 L 182 600 L 183 600 L 184 601 L 186 601 L 187 600 L 225 600 L 226 601 L 231 601 L 232 600 L 234 600 L 237 597 L 237 592 L 236 591 L 236 590 L 234 588 L 227 588 L 226 587 L 224 587 L 223 588 L 222 588 L 221 587 L 220 588 L 203 588 L 202 587 L 201 588 L 188 588 L 187 587 L 186 587 L 185 588 L 184 587 Z" fill="black" />
<path d="M 816 574 L 815 575 L 814 575 L 814 576 L 813 577 L 813 578 L 812 579 L 812 608 L 814 610 L 814 611 L 815 611 L 816 612 L 847 612 L 850 609 L 850 608 L 851 607 L 851 580 L 850 579 L 850 577 L 847 574 Z" fill="black" />
<path d="M 609 460 L 605 464 L 605 466 L 604 467 L 605 468 L 605 470 L 606 471 L 606 472 L 607 473 L 614 473 L 615 472 L 616 472 L 617 471 L 617 470 L 618 469 L 618 463 L 616 461 L 615 461 L 614 460 Z" fill="black" />
<path d="M 590 421 L 588 423 L 587 423 L 586 424 L 586 425 L 584 427 L 584 428 L 583 429 L 583 433 L 584 434 L 584 435 L 586 437 L 587 437 L 588 438 L 593 438 L 594 437 L 595 437 L 597 435 L 597 433 L 598 432 L 598 430 L 599 429 L 599 427 L 598 426 L 598 425 L 597 424 L 597 423 L 596 423 L 595 422 L 592 422 L 591 421 Z" fill="black" />
<path d="M 173 418 L 172 419 L 170 419 L 170 420 L 168 422 L 168 428 L 170 430 L 170 431 L 179 440 L 180 440 L 181 441 L 181 442 L 170 453 L 170 454 L 169 455 L 169 456 L 168 457 L 168 462 L 171 465 L 173 465 L 174 466 L 175 466 L 176 465 L 177 465 L 182 460 L 182 459 L 190 451 L 191 451 L 192 452 L 192 453 L 204 465 L 210 465 L 213 462 L 213 457 L 210 454 L 210 453 L 205 448 L 205 447 L 203 445 L 203 444 L 201 442 L 201 441 L 209 433 L 209 432 L 213 428 L 213 422 L 212 421 L 212 420 L 211 420 L 210 419 L 208 419 L 207 418 L 206 418 L 205 419 L 204 419 L 199 424 L 199 425 L 198 426 L 197 426 L 197 427 L 191 433 L 190 433 L 180 423 L 180 422 L 178 420 L 177 420 L 176 419 L 175 419 L 174 418 Z" fill="black" />
<path d="M 565 373 L 564 374 L 563 374 L 560 377 L 560 378 L 559 379 L 559 380 L 558 381 L 558 386 L 561 389 L 568 389 L 569 388 L 570 388 L 572 386 L 572 385 L 573 384 L 573 381 L 574 380 L 574 379 L 573 378 L 573 377 L 571 375 L 570 375 L 569 374 L 568 374 L 567 373 Z" fill="black" />
<path d="M 437 287 L 434 290 L 434 299 L 435 300 L 435 303 L 436 304 L 436 305 L 437 306 L 437 311 L 436 312 L 436 313 L 433 316 L 433 317 L 419 331 L 418 331 L 417 332 L 417 333 L 416 334 L 415 334 L 406 343 L 405 343 L 404 344 L 404 345 L 401 348 L 401 349 L 399 351 L 399 353 L 398 354 L 398 356 L 397 357 L 397 363 L 396 364 L 396 402 L 395 403 L 395 404 L 394 405 L 394 407 L 393 408 L 393 409 L 392 410 L 392 411 L 390 413 L 389 413 L 387 415 L 383 415 L 382 414 L 381 414 L 377 410 L 377 409 L 376 408 L 376 407 L 375 406 L 375 403 L 374 402 L 374 389 L 373 388 L 373 380 L 371 378 L 370 378 L 369 377 L 368 377 L 367 378 L 363 378 L 362 379 L 360 379 L 359 380 L 358 380 L 356 382 L 355 382 L 353 384 L 352 384 L 349 387 L 349 388 L 344 393 L 344 394 L 342 396 L 342 397 L 341 398 L 341 399 L 340 400 L 340 401 L 339 402 L 339 404 L 338 405 L 338 406 L 337 407 L 337 409 L 336 410 L 335 409 L 335 407 L 334 407 L 333 406 L 331 406 L 330 405 L 328 405 L 327 404 L 324 404 L 323 403 L 321 403 L 320 402 L 317 402 L 316 401 L 312 401 L 311 400 L 307 400 L 306 399 L 297 399 L 296 398 L 291 398 L 290 399 L 286 399 L 283 402 L 282 402 L 282 403 L 280 405 L 280 406 L 279 407 L 279 408 L 278 409 L 278 411 L 277 412 L 277 415 L 276 416 L 276 419 L 275 420 L 275 423 L 274 424 L 274 437 L 275 438 L 275 440 L 281 446 L 282 446 L 284 448 L 284 452 L 283 453 L 283 460 L 282 461 L 282 468 L 281 469 L 281 482 L 280 483 L 280 493 L 281 494 L 281 506 L 282 507 L 282 514 L 283 515 L 283 520 L 284 521 L 284 524 L 285 525 L 285 529 L 286 530 L 286 533 L 287 534 L 287 536 L 288 537 L 288 539 L 289 540 L 289 542 L 290 543 L 290 545 L 291 546 L 291 548 L 292 549 L 292 550 L 293 551 L 293 553 L 294 554 L 294 555 L 295 556 L 295 557 L 296 558 L 296 560 L 297 561 L 297 562 L 298 563 L 298 564 L 299 565 L 299 566 L 300 567 L 300 568 L 301 569 L 301 570 L 302 571 L 302 572 L 303 573 L 303 574 L 304 575 L 304 576 L 306 578 L 306 579 L 308 581 L 308 582 L 310 584 L 310 585 L 313 588 L 313 589 L 315 591 L 315 592 L 318 595 L 318 596 L 321 599 L 321 600 L 324 603 L 324 604 L 329 609 L 329 610 L 331 612 L 331 614 L 330 615 L 330 616 L 328 618 L 328 619 L 325 622 L 325 623 L 322 626 L 322 627 L 319 630 L 319 631 L 316 634 L 316 635 L 313 638 L 313 639 L 310 642 L 310 643 L 307 646 L 307 647 L 304 650 L 304 651 L 301 654 L 301 655 L 298 658 L 298 659 L 295 662 L 295 663 L 292 666 L 292 667 L 290 669 L 290 670 L 287 673 L 287 674 L 284 677 L 284 678 L 282 680 L 282 681 L 280 683 L 280 684 L 277 687 L 277 688 L 274 691 L 274 692 L 272 694 L 272 695 L 269 698 L 269 699 L 266 702 L 266 703 L 263 706 L 263 707 L 260 710 L 260 711 L 257 714 L 257 715 L 254 718 L 254 719 L 250 723 L 250 724 L 248 726 L 248 727 L 245 730 L 245 731 L 242 734 L 242 735 L 239 738 L 239 739 L 235 743 L 235 744 L 232 747 L 232 748 L 229 751 L 229 752 L 226 755 L 226 756 L 223 759 L 223 760 L 221 762 L 221 763 L 219 765 L 219 766 L 215 770 L 215 771 L 212 774 L 212 775 L 209 778 L 209 779 L 206 782 L 206 783 L 202 787 L 202 788 L 198 792 L 198 793 L 196 795 L 196 796 L 195 797 L 195 798 L 194 799 L 194 801 L 193 802 L 193 804 L 194 805 L 194 808 L 195 809 L 195 810 L 199 814 L 200 814 L 201 815 L 209 815 L 210 814 L 211 814 L 217 808 L 217 807 L 221 803 L 221 802 L 225 798 L 225 797 L 228 794 L 228 793 L 231 790 L 231 789 L 234 786 L 234 785 L 237 782 L 237 781 L 240 778 L 240 777 L 243 774 L 243 773 L 246 770 L 246 769 L 249 766 L 249 765 L 252 762 L 252 761 L 254 759 L 254 758 L 257 755 L 257 754 L 260 751 L 260 750 L 263 747 L 263 746 L 266 743 L 266 742 L 269 739 L 269 738 L 272 735 L 272 734 L 275 731 L 275 730 L 278 727 L 278 726 L 281 723 L 281 722 L 284 719 L 284 718 L 287 715 L 290 715 L 291 716 L 293 716 L 294 717 L 297 717 L 298 718 L 300 718 L 301 719 L 303 719 L 304 720 L 306 720 L 307 721 L 309 721 L 310 722 L 312 722 L 313 723 L 316 723 L 317 724 L 319 724 L 320 725 L 322 725 L 323 726 L 325 726 L 326 727 L 328 727 L 329 728 L 331 728 L 332 729 L 334 729 L 335 730 L 337 730 L 338 731 L 340 731 L 341 732 L 343 732 L 344 733 L 347 733 L 348 734 L 350 734 L 351 735 L 353 735 L 354 736 L 356 736 L 357 737 L 359 737 L 360 738 L 362 738 L 363 739 L 366 739 L 367 740 L 369 740 L 370 741 L 372 741 L 373 742 L 375 742 L 376 743 L 378 743 L 379 744 L 381 744 L 382 745 L 385 745 L 386 746 L 387 746 L 388 747 L 390 747 L 391 748 L 393 748 L 394 749 L 397 749 L 398 750 L 400 750 L 401 751 L 403 751 L 404 752 L 406 752 L 407 753 L 409 753 L 410 754 L 412 754 L 413 755 L 416 755 L 417 756 L 419 756 L 420 757 L 422 757 L 423 758 L 426 758 L 427 759 L 429 759 L 430 760 L 432 760 L 433 761 L 435 761 L 436 762 L 439 762 L 440 763 L 442 763 L 443 764 L 445 764 L 446 765 L 448 765 L 449 766 L 452 766 L 453 767 L 455 767 L 456 768 L 458 768 L 459 769 L 462 769 L 463 770 L 465 770 L 466 771 L 468 771 L 469 772 L 471 772 L 472 773 L 474 773 L 475 774 L 477 774 L 478 775 L 480 775 L 481 776 L 484 776 L 485 777 L 487 777 L 488 778 L 490 778 L 491 779 L 493 779 L 494 780 L 496 780 L 497 781 L 499 781 L 500 782 L 502 782 L 503 783 L 506 783 L 507 784 L 509 784 L 510 785 L 511 785 L 512 786 L 515 786 L 516 787 L 518 787 L 519 788 L 521 788 L 522 789 L 524 789 L 525 790 L 527 790 L 528 791 L 530 791 L 531 792 L 533 792 L 534 793 L 536 793 L 537 794 L 539 794 L 540 795 L 541 795 L 542 796 L 542 800 L 541 801 L 541 810 L 540 811 L 540 821 L 539 822 L 539 823 L 540 824 L 539 825 L 539 834 L 538 835 L 538 844 L 537 845 L 537 860 L 538 861 L 538 862 L 541 865 L 542 865 L 543 866 L 550 866 L 551 865 L 552 865 L 553 864 L 554 864 L 557 861 L 557 860 L 558 859 L 558 855 L 559 854 L 558 853 L 559 852 L 559 846 L 560 845 L 560 839 L 561 838 L 561 826 L 562 825 L 562 814 L 563 813 L 563 804 L 564 803 L 564 795 L 565 794 L 565 785 L 566 784 L 566 772 L 567 771 L 567 763 L 568 762 L 568 753 L 569 752 L 569 744 L 570 743 L 570 734 L 571 733 L 571 724 L 572 723 L 572 714 L 573 713 L 573 712 L 572 711 L 573 710 L 573 706 L 574 705 L 574 699 L 575 698 L 579 698 L 580 697 L 584 697 L 585 696 L 586 697 L 587 696 L 593 696 L 594 695 L 597 695 L 599 697 L 599 698 L 600 699 L 600 701 L 601 702 L 601 703 L 602 704 L 602 705 L 603 706 L 603 707 L 604 708 L 604 710 L 605 711 L 605 712 L 606 713 L 606 714 L 607 715 L 607 716 L 608 717 L 608 719 L 609 720 L 609 721 L 610 722 L 610 723 L 611 724 L 611 725 L 612 726 L 612 728 L 613 729 L 613 730 L 614 731 L 614 732 L 615 733 L 615 735 L 616 736 L 616 737 L 617 738 L 617 739 L 618 740 L 618 741 L 619 742 L 619 744 L 620 745 L 620 746 L 621 747 L 621 748 L 622 749 L 622 750 L 623 751 L 623 753 L 624 754 L 624 755 L 625 756 L 625 757 L 626 758 L 626 759 L 627 760 L 627 762 L 628 763 L 628 764 L 629 765 L 629 766 L 630 767 L 630 768 L 631 769 L 631 771 L 632 772 L 632 773 L 633 774 L 633 775 L 634 776 L 634 778 L 635 779 L 635 780 L 636 781 L 636 783 L 637 784 L 637 785 L 638 786 L 638 788 L 639 789 L 629 799 L 629 800 L 626 803 L 626 804 L 624 806 L 624 807 L 623 808 L 623 809 L 622 810 L 622 811 L 621 812 L 621 813 L 620 814 L 620 815 L 619 816 L 619 818 L 618 819 L 618 822 L 617 823 L 617 825 L 616 826 L 616 832 L 615 833 L 615 844 L 616 845 L 616 852 L 617 853 L 617 856 L 618 857 L 618 859 L 619 860 L 619 862 L 620 863 L 620 865 L 621 866 L 621 867 L 622 868 L 622 869 L 623 870 L 623 871 L 625 873 L 625 874 L 626 875 L 626 876 L 629 879 L 629 880 L 628 881 L 452 881 L 451 882 L 450 882 L 448 884 L 448 890 L 451 893 L 455 893 L 456 894 L 476 894 L 477 893 L 629 893 L 630 894 L 641 894 L 642 893 L 643 894 L 644 894 L 646 896 L 647 896 L 648 897 L 649 897 L 651 899 L 652 899 L 653 900 L 655 900 L 656 901 L 657 901 L 658 902 L 660 902 L 661 903 L 660 904 L 492 904 L 491 905 L 366 905 L 365 906 L 362 906 L 361 907 L 360 907 L 360 908 L 359 909 L 359 914 L 362 917 L 671 917 L 672 916 L 673 917 L 674 916 L 675 917 L 676 916 L 677 917 L 678 916 L 679 917 L 718 917 L 719 916 L 797 916 L 798 915 L 799 915 L 801 913 L 801 912 L 802 911 L 802 907 L 800 905 L 799 905 L 798 904 L 696 904 L 695 903 L 696 902 L 698 902 L 699 901 L 701 901 L 702 900 L 703 900 L 704 899 L 705 899 L 706 898 L 707 898 L 708 897 L 709 897 L 711 895 L 712 895 L 713 894 L 714 894 L 719 889 L 720 889 L 725 884 L 725 883 L 728 880 L 728 879 L 731 876 L 731 875 L 732 874 L 732 873 L 733 872 L 733 871 L 734 870 L 734 869 L 735 868 L 735 867 L 736 866 L 736 865 L 737 864 L 737 862 L 738 861 L 738 859 L 739 858 L 739 855 L 740 854 L 740 849 L 741 848 L 741 831 L 740 830 L 740 826 L 739 825 L 739 821 L 738 820 L 738 819 L 737 818 L 737 816 L 736 815 L 736 814 L 735 813 L 735 812 L 734 811 L 734 810 L 733 809 L 733 808 L 732 807 L 732 806 L 731 805 L 731 804 L 728 801 L 728 800 L 724 796 L 724 795 L 719 790 L 718 790 L 715 787 L 714 787 L 711 784 L 710 784 L 709 783 L 708 783 L 707 782 L 706 782 L 705 781 L 704 781 L 703 780 L 701 780 L 700 779 L 699 779 L 698 778 L 696 778 L 695 777 L 692 777 L 691 776 L 685 776 L 684 775 L 673 775 L 672 776 L 667 776 L 666 777 L 663 777 L 662 778 L 660 778 L 659 777 L 659 776 L 658 775 L 658 773 L 657 772 L 657 771 L 656 770 L 656 768 L 655 767 L 655 766 L 654 765 L 654 764 L 653 763 L 653 761 L 652 760 L 652 758 L 651 757 L 651 756 L 650 755 L 650 754 L 649 753 L 649 751 L 648 750 L 648 749 L 647 748 L 647 746 L 646 745 L 646 744 L 645 743 L 645 741 L 644 740 L 644 739 L 643 738 L 643 737 L 642 736 L 642 734 L 641 733 L 641 732 L 640 731 L 640 729 L 639 728 L 639 727 L 638 726 L 638 724 L 637 723 L 637 722 L 636 721 L 636 720 L 635 719 L 635 717 L 634 716 L 634 715 L 633 714 L 633 712 L 632 711 L 632 710 L 631 709 L 631 707 L 630 706 L 630 705 L 629 704 L 629 702 L 628 701 L 628 700 L 627 699 L 627 697 L 626 696 L 626 695 L 625 694 L 625 692 L 624 691 L 624 689 L 623 688 L 624 687 L 626 687 L 627 686 L 628 686 L 629 685 L 630 685 L 631 684 L 632 684 L 633 683 L 635 683 L 636 682 L 637 682 L 638 681 L 639 681 L 640 680 L 641 680 L 642 679 L 643 679 L 644 678 L 645 678 L 646 677 L 647 677 L 648 676 L 649 676 L 650 675 L 651 675 L 652 674 L 653 674 L 654 673 L 655 673 L 656 672 L 657 672 L 659 670 L 660 670 L 661 669 L 662 669 L 664 667 L 665 667 L 667 665 L 668 665 L 670 663 L 671 663 L 674 660 L 675 660 L 678 657 L 679 657 L 684 652 L 685 652 L 692 645 L 693 645 L 694 644 L 694 643 L 696 641 L 697 641 L 699 639 L 699 638 L 707 630 L 707 629 L 710 626 L 710 625 L 713 622 L 713 621 L 715 619 L 715 618 L 717 616 L 717 615 L 719 613 L 719 612 L 721 610 L 721 609 L 723 607 L 723 606 L 724 605 L 724 604 L 725 603 L 725 602 L 726 601 L 726 600 L 727 599 L 727 598 L 728 597 L 728 596 L 729 595 L 729 594 L 730 593 L 730 592 L 731 591 L 731 590 L 732 589 L 732 588 L 733 587 L 733 585 L 734 584 L 734 583 L 735 582 L 735 580 L 736 579 L 736 578 L 737 577 L 737 575 L 738 574 L 738 572 L 739 571 L 739 569 L 740 568 L 743 568 L 744 567 L 748 567 L 749 566 L 750 566 L 751 565 L 752 565 L 758 559 L 758 557 L 759 556 L 759 551 L 754 546 L 753 546 L 751 544 L 750 544 L 748 542 L 747 542 L 746 541 L 745 541 L 743 539 L 743 538 L 739 534 L 738 534 L 736 532 L 735 532 L 733 530 L 732 530 L 731 529 L 730 529 L 728 527 L 726 527 L 725 526 L 721 526 L 720 527 L 719 526 L 718 526 L 716 524 L 715 524 L 714 523 L 713 523 L 712 522 L 711 522 L 710 521 L 709 521 L 708 520 L 707 520 L 706 519 L 704 519 L 702 517 L 701 517 L 700 516 L 699 516 L 698 515 L 696 515 L 695 514 L 694 514 L 693 513 L 692 513 L 691 512 L 690 512 L 689 511 L 688 511 L 687 510 L 686 510 L 685 509 L 684 509 L 683 508 L 682 508 L 681 507 L 680 507 L 679 506 L 678 506 L 677 505 L 676 505 L 675 504 L 673 504 L 672 503 L 671 503 L 670 502 L 669 502 L 668 501 L 667 501 L 666 500 L 664 500 L 663 499 L 662 499 L 661 498 L 659 498 L 658 497 L 657 497 L 656 496 L 654 496 L 653 495 L 651 495 L 650 494 L 649 494 L 648 493 L 646 493 L 645 492 L 643 492 L 642 491 L 640 491 L 639 490 L 637 490 L 636 489 L 633 489 L 632 488 L 630 488 L 629 487 L 627 487 L 626 486 L 623 486 L 622 485 L 620 485 L 619 484 L 615 484 L 614 483 L 612 483 L 611 482 L 608 482 L 607 481 L 601 481 L 600 480 L 597 480 L 596 479 L 591 479 L 590 478 L 579 478 L 577 480 L 577 482 L 576 483 L 576 486 L 575 487 L 575 489 L 574 490 L 574 491 L 572 493 L 572 494 L 571 495 L 570 495 L 568 497 L 565 497 L 564 498 L 559 498 L 558 497 L 558 495 L 559 494 L 559 487 L 560 486 L 560 481 L 561 480 L 561 475 L 562 474 L 562 458 L 561 457 L 561 450 L 560 449 L 560 445 L 559 444 L 559 443 L 558 442 L 558 440 L 556 438 L 555 438 L 554 437 L 551 437 L 550 438 L 549 438 L 546 441 L 546 442 L 545 443 L 545 444 L 544 445 L 544 446 L 543 447 L 543 448 L 540 451 L 539 451 L 537 453 L 536 453 L 532 457 L 531 457 L 530 458 L 529 458 L 528 459 L 525 459 L 524 460 L 521 460 L 520 459 L 515 459 L 514 458 L 514 456 L 515 455 L 515 454 L 517 452 L 517 451 L 524 444 L 524 443 L 526 441 L 526 440 L 527 439 L 527 438 L 529 436 L 529 435 L 530 434 L 530 432 L 531 431 L 531 429 L 532 428 L 532 425 L 533 424 L 533 420 L 534 419 L 534 413 L 535 412 L 535 404 L 534 403 L 534 397 L 533 396 L 533 393 L 532 392 L 532 389 L 531 388 L 531 387 L 530 386 L 530 384 L 529 383 L 529 382 L 528 381 L 528 380 L 526 378 L 526 377 L 524 375 L 524 374 L 520 370 L 520 369 L 518 367 L 518 366 L 516 364 L 516 363 L 515 362 L 515 361 L 514 360 L 514 359 L 513 358 L 513 356 L 512 355 L 512 353 L 511 352 L 511 349 L 510 348 L 510 345 L 509 344 L 509 343 L 507 343 L 506 342 L 505 342 L 504 343 L 502 343 L 501 344 L 500 344 L 498 346 L 498 347 L 497 348 L 497 350 L 496 351 L 496 353 L 495 354 L 495 361 L 494 362 L 494 365 L 493 366 L 493 373 L 492 374 L 492 376 L 491 377 L 491 379 L 490 380 L 490 381 L 486 385 L 485 385 L 484 386 L 482 386 L 481 387 L 475 387 L 474 386 L 473 386 L 471 384 L 471 383 L 470 382 L 470 381 L 469 380 L 469 379 L 468 378 L 468 375 L 467 374 L 467 369 L 466 368 L 466 353 L 467 352 L 467 334 L 466 333 L 466 328 L 465 327 L 465 324 L 464 323 L 464 321 L 463 320 L 463 319 L 462 318 L 462 316 L 460 314 L 460 313 L 459 312 L 459 311 L 458 310 L 458 309 L 457 308 L 457 307 L 455 305 L 455 304 L 452 301 L 452 300 L 450 298 L 450 297 L 448 295 L 448 294 L 441 287 Z" fill="black" />
<path d="M 300 217 L 295 222 L 295 223 L 294 224 L 294 225 L 293 226 L 293 227 L 292 228 L 292 231 L 291 232 L 291 239 L 290 240 L 290 244 L 291 245 L 291 249 L 292 250 L 292 253 L 293 254 L 293 256 L 294 257 L 294 258 L 296 260 L 296 261 L 298 263 L 298 264 L 302 268 L 302 269 L 306 273 L 306 274 L 308 276 L 308 277 L 309 278 L 309 280 L 310 281 L 310 284 L 311 285 L 311 292 L 310 293 L 310 297 L 309 298 L 309 301 L 308 302 L 308 303 L 307 304 L 307 305 L 306 306 L 306 307 L 305 308 L 305 309 L 303 311 L 303 312 L 302 313 L 302 314 L 301 315 L 301 316 L 300 317 L 300 318 L 299 319 L 299 321 L 298 322 L 298 324 L 297 325 L 297 340 L 298 341 L 298 343 L 299 344 L 299 346 L 300 347 L 300 348 L 301 349 L 301 350 L 302 351 L 303 351 L 304 352 L 305 352 L 306 353 L 308 353 L 309 352 L 310 352 L 312 350 L 312 349 L 313 348 L 313 342 L 312 341 L 312 337 L 311 336 L 311 330 L 312 329 L 312 326 L 313 325 L 313 324 L 314 323 L 314 322 L 315 321 L 315 320 L 316 319 L 316 318 L 317 317 L 317 316 L 319 314 L 319 313 L 320 312 L 320 310 L 321 309 L 321 308 L 322 307 L 322 304 L 323 303 L 323 300 L 324 299 L 324 298 L 323 297 L 324 296 L 324 283 L 323 282 L 323 278 L 322 277 L 322 275 L 321 274 L 321 273 L 320 272 L 320 271 L 319 270 L 319 269 L 317 267 L 317 266 L 314 263 L 314 262 L 311 259 L 311 258 L 309 256 L 309 255 L 308 254 L 308 253 L 306 251 L 306 249 L 305 248 L 305 244 L 304 243 L 304 236 L 305 235 L 305 232 L 306 231 L 306 230 L 308 228 L 308 227 L 309 226 L 309 220 L 307 218 L 306 218 L 305 217 Z" fill="black" />
<path d="M 563 207 L 562 208 L 552 208 L 551 209 L 545 209 L 544 210 L 539 210 L 538 211 L 534 211 L 533 212 L 529 212 L 528 213 L 525 213 L 524 214 L 521 214 L 520 215 L 517 215 L 516 216 L 514 216 L 513 217 L 511 217 L 510 218 L 508 218 L 507 219 L 505 219 L 504 220 L 503 220 L 502 221 L 500 221 L 499 222 L 498 222 L 497 223 L 495 223 L 494 224 L 493 224 L 492 225 L 490 225 L 489 226 L 488 226 L 487 227 L 482 227 L 481 226 L 472 226 L 471 227 L 469 227 L 465 231 L 465 236 L 571 342 L 571 343 L 574 346 L 575 346 L 576 347 L 576 348 L 577 349 L 578 349 L 582 353 L 582 354 L 583 354 L 628 399 L 628 400 L 663 435 L 664 435 L 669 440 L 669 441 L 670 441 L 680 451 L 680 452 L 759 531 L 760 531 L 764 535 L 765 535 L 767 537 L 771 537 L 773 535 L 773 534 L 774 533 L 774 531 L 775 530 L 775 524 L 774 523 L 774 522 L 773 521 L 773 520 L 769 516 L 769 515 L 770 514 L 770 513 L 771 512 L 771 511 L 772 510 L 772 509 L 773 508 L 773 507 L 774 506 L 774 505 L 775 504 L 775 503 L 776 502 L 776 501 L 777 500 L 777 498 L 778 497 L 778 496 L 779 495 L 779 494 L 780 493 L 780 491 L 781 490 L 781 489 L 782 488 L 782 486 L 783 485 L 783 483 L 784 482 L 784 481 L 785 480 L 785 478 L 786 477 L 786 475 L 787 474 L 787 471 L 788 470 L 788 467 L 789 466 L 789 463 L 790 462 L 790 459 L 791 458 L 791 454 L 792 453 L 792 447 L 793 446 L 793 440 L 794 439 L 794 413 L 793 412 L 793 403 L 792 402 L 792 397 L 791 396 L 791 390 L 790 389 L 790 386 L 789 385 L 789 383 L 788 382 L 788 378 L 787 377 L 787 375 L 786 374 L 786 372 L 785 371 L 785 369 L 784 368 L 784 366 L 783 365 L 783 363 L 782 362 L 782 361 L 781 360 L 781 358 L 780 357 L 780 356 L 779 355 L 779 354 L 778 353 L 778 351 L 777 350 L 777 349 L 776 348 L 776 347 L 775 346 L 775 345 L 774 344 L 774 343 L 772 341 L 772 340 L 771 339 L 771 338 L 770 337 L 770 336 L 768 334 L 768 333 L 767 332 L 767 331 L 765 329 L 765 328 L 764 327 L 765 326 L 765 325 L 789 301 L 789 300 L 791 298 L 791 296 L 792 295 L 792 287 L 791 286 L 791 284 L 790 283 L 790 282 L 789 281 L 789 280 L 786 277 L 786 276 L 781 271 L 781 270 L 733 222 L 732 222 L 730 220 L 728 220 L 727 219 L 717 219 L 716 220 L 715 220 L 714 221 L 713 221 L 711 223 L 710 223 L 707 226 L 707 227 L 689 245 L 688 244 L 687 244 L 685 242 L 684 242 L 683 241 L 682 241 L 680 239 L 679 239 L 678 238 L 677 238 L 675 236 L 674 236 L 673 235 L 672 235 L 671 234 L 670 234 L 668 232 L 667 232 L 666 231 L 665 231 L 664 230 L 663 230 L 662 229 L 661 229 L 660 228 L 659 228 L 657 226 L 656 226 L 655 225 L 654 225 L 653 224 L 651 224 L 650 223 L 649 223 L 648 222 L 647 222 L 646 221 L 645 221 L 644 220 L 642 220 L 641 219 L 639 219 L 638 218 L 637 218 L 636 217 L 634 217 L 633 216 L 631 216 L 630 215 L 627 215 L 626 214 L 623 214 L 622 213 L 619 213 L 618 212 L 615 212 L 614 211 L 610 211 L 609 210 L 604 210 L 603 209 L 596 209 L 595 208 L 578 208 L 577 207 Z" fill="black" />
<path d="M 353 164 L 350 167 L 350 168 L 349 169 L 349 171 L 348 172 L 348 175 L 347 176 L 347 180 L 346 181 L 346 192 L 347 193 L 347 197 L 348 198 L 348 202 L 349 203 L 349 204 L 350 205 L 350 207 L 351 208 L 351 209 L 352 210 L 352 211 L 353 212 L 353 213 L 356 216 L 356 217 L 368 229 L 368 230 L 370 232 L 370 233 L 371 234 L 371 236 L 372 237 L 372 244 L 373 245 L 373 256 L 372 257 L 372 260 L 371 261 L 371 263 L 370 264 L 370 265 L 369 266 L 369 267 L 368 268 L 368 269 L 367 270 L 367 271 L 366 272 L 366 273 L 365 274 L 365 275 L 363 277 L 363 278 L 362 279 L 362 280 L 361 281 L 361 282 L 360 283 L 360 286 L 359 287 L 359 289 L 358 290 L 358 294 L 357 295 L 357 307 L 358 308 L 358 313 L 359 314 L 359 317 L 360 318 L 360 321 L 361 322 L 361 323 L 362 324 L 362 325 L 365 328 L 370 328 L 371 327 L 372 327 L 373 326 L 373 325 L 374 324 L 374 319 L 373 318 L 373 311 L 372 310 L 372 309 L 371 308 L 371 297 L 372 296 L 372 293 L 373 292 L 373 290 L 374 289 L 374 288 L 375 287 L 375 286 L 376 285 L 376 284 L 377 283 L 377 282 L 379 280 L 379 279 L 380 278 L 380 277 L 381 276 L 381 275 L 382 274 L 382 273 L 383 272 L 383 271 L 384 270 L 384 268 L 385 267 L 385 264 L 386 263 L 386 258 L 387 257 L 387 244 L 386 243 L 386 236 L 385 235 L 385 232 L 384 231 L 384 229 L 383 228 L 383 226 L 382 225 L 382 224 L 380 222 L 380 221 L 376 217 L 376 216 L 367 207 L 367 206 L 365 204 L 365 203 L 364 202 L 364 201 L 363 200 L 363 198 L 362 197 L 362 194 L 361 193 L 361 187 L 360 186 L 360 181 L 361 180 L 361 176 L 362 175 L 362 167 L 360 165 L 359 165 L 358 164 Z" fill="black" />
<path d="M 412 100 L 411 101 L 410 101 L 409 102 L 409 103 L 407 105 L 407 107 L 406 108 L 406 121 L 407 122 L 407 126 L 408 127 L 408 131 L 409 132 L 409 133 L 410 134 L 410 136 L 411 137 L 411 138 L 413 140 L 413 141 L 414 142 L 414 143 L 417 146 L 417 147 L 419 149 L 419 150 L 422 153 L 422 154 L 424 156 L 424 157 L 426 159 L 426 160 L 427 161 L 427 162 L 429 164 L 429 168 L 430 169 L 430 179 L 429 180 L 429 184 L 428 185 L 428 188 L 427 189 L 427 190 L 426 191 L 426 192 L 425 193 L 425 194 L 424 195 L 424 196 L 423 197 L 423 198 L 422 199 L 422 200 L 420 202 L 420 203 L 419 204 L 419 205 L 418 206 L 418 207 L 417 208 L 417 210 L 416 211 L 416 212 L 415 213 L 415 215 L 414 216 L 414 218 L 413 219 L 413 222 L 412 223 L 412 237 L 413 238 L 412 239 L 413 240 L 413 243 L 414 244 L 414 246 L 415 247 L 415 249 L 416 250 L 416 251 L 417 252 L 417 253 L 419 255 L 420 255 L 421 256 L 424 256 L 425 255 L 426 255 L 429 252 L 429 249 L 428 248 L 428 247 L 427 246 L 427 243 L 426 242 L 426 239 L 425 238 L 425 227 L 426 226 L 426 223 L 427 222 L 427 220 L 428 219 L 428 218 L 429 217 L 429 216 L 430 215 L 430 214 L 431 213 L 431 212 L 432 211 L 432 210 L 434 208 L 434 207 L 435 206 L 435 205 L 436 204 L 436 203 L 438 201 L 438 199 L 439 198 L 439 197 L 440 196 L 440 195 L 441 194 L 441 192 L 442 191 L 442 188 L 443 187 L 443 185 L 444 184 L 444 163 L 443 162 L 443 160 L 442 159 L 442 157 L 441 156 L 441 155 L 440 154 L 440 153 L 438 151 L 438 150 L 436 148 L 436 147 L 433 144 L 433 143 L 431 141 L 431 140 L 429 138 L 429 137 L 427 135 L 427 134 L 425 132 L 425 131 L 424 130 L 424 129 L 423 128 L 423 126 L 422 125 L 422 123 L 421 122 L 421 119 L 420 118 L 420 105 L 419 104 L 419 103 L 417 101 L 416 101 L 415 100 Z" fill="black" />
</svg>